{
	"asset":{
		"generator":"Khronos glTF Blender I/O v3.6.28",
		"version":"2.0"
	},
	"scene":0,
	"scenes":[
		{
			"name":"Scene",
			"nodes":[
				0,
				1,
				2,
				3,
				4,
				5,
				6,
				7,
				8,
				9,
				10,
				11,
				12,
				13,
				14
			]
		}
	],
	"nodes":[
		{
			"mesh":0,
			"name":"Scouts_body"
		},
		{
			"mesh":1,
			"name":"Scouts_hullBottomBase"
		},
		{
			"mesh":2,
			"name":"Scouts_hullBottomTrim"
		},
		{
			"mesh":3,
			"name":"Scouts_windshieldGlass"
		},
		{
			"mesh":4,
			"name":"Scouts_Controls"
		},
		{
			"mesh":5,
			"name":"Scouts_wheelPrimary"
		},
		{
			"mesh":6,
			"name":"Scouts_wheelTertiary"
		},
		{
			"mesh":7,
			"name":"Table.001",
			"translation":[
				-0.934353768825531,
				0.6547295451164246,
				9.234415054321289
			]
		},
		{
			"mesh":8,
			"name":"Cube"
		},
		{
			"mesh":9,
			"name":"Scouts_floorPanels"
		},
		{
			"mesh":10,
			"name":"Hull-Interior_Primary.005"
		},
		{
			"mesh":11,
			"name":"Scouts_seatsPrimary"
		},
		{
			"mesh":12,
			"name":"Scouts_seatsTertiary"
		},
		{
			"mesh":13,
			"name":"Scouts_chromeParts"
		},
		{
			"mesh":14,
			"name":"Scouts_seatsSecondary"
		}
	],
	"materials":[
		{
			"doubleSided":true,
			"name":"scouts-body",
			"pbrMetallicRoughness":{
				"baseColorFactor":[
					0.800000011920929,
					0.800000011920929,
					0.800000011920929,
					1
				],
				"metallicFactor":0,
				"roughnessFactor":0.5
			}
		},
		{
			"name":"Hull-Bottom_Base.001",
			"occlusionTexture":{
				"index":0
			},
			"pbrMetallicRoughness":{
				"baseColorFactor":[
					0.9419999718666077,
					0.9419999718666077,
					0.9419999718666077,
					1
				],
				"metallicFactor":0,
				"roughnessFactor":0.10000000149011612
			}
		},
		{
			"name":"Hull-Bottom_Trim.001",
			"normalTexture":{
				"index":1
			},
			"occlusionTexture":{
				"index":2
			},
			"pbrMetallicRoughness":{
				"baseColorFactor":[
					0.0430000014603138,
					0.0430000014603138,
					0.0430000014603138,
					1
				],
				"metallicFactor":0,
				"roughnessFactor":0.10000000149011612
			}
		},
		{
			"alphaMode":"BLEND",
			"name":"scouts-glass",
			"pbrMetallicRoughness":{
				"baseColorFactor":[
					0.03533927723765373,
					0.03533927723765373,
					0.03533927723765373,
					0.19999998807907104
				],
				"metallicFactor":0.75,
				"roughnessFactor":0.05000000447034836
			}
		},
		{
			"name":"Controls",
			"normalTexture":{
				"index":3
			},
			"occlusionTexture":{
				"index":4
			},
			"pbrMetallicRoughness":{
				"baseColorTexture":{
					"index":5
				},
				"metallicRoughnessTexture":{
					"index":4
				}
			}
		},
		{
			"name":"Seats_Primary",
			"normalTexture":{
				"index":6
			},
			"occlusionTexture":{
				"index":7
			},
			"pbrMetallicRoughness":{
				"baseColorFactor":[
					0.7122302055358887,
					0.6887484788894653,
					0.645618736743927,
					1
				],
				"metallicFactor":0,
				"metallicRoughnessTexture":{
					"index":7
				}
			}
		},
		{
			"name":"Seats_Tertiary",
			"normalTexture":{
				"index":8
			},
			"occlusionTexture":{
				"index":9
			},
			"pbrMetallicRoughness":{
				"baseColorFactor":[
					0.06474820524454117,
					0.06474820524454117,
					0.06474820524454117,
					1
				],
				"metallicFactor":0,
				"metallicRoughnessTexture":{
					"index":9
				}
			}
		},
		{
			"name":"Table-Jets",
			"normalTexture":{
				"index":10
			},
			"occlusionTexture":{
				"index":11
			},
			"pbrMetallicRoughness":{
				"baseColorTexture":{
					"index":12
				},
				"metallicRoughnessTexture":{
					"index":11
				}
			}
		},
		{
			"name":"Hull-Interior_Primary",
			"normalTexture":{
				"index":13
			},
			"occlusionTexture":{
				"index":14
			},
			"pbrMetallicRoughness":{
				"baseColorFactor":[
					0.9424460530281067,
					0.9424460530281067,
					0.9424460530281067,
					1
				],
				"metallicFactor":0,
				"roughnessFactor":0.10000000149011612
			}
		},
		{
			"name":"chromeParts",
			"normalTexture":{
				"index":15
			},
			"occlusionTexture":{
				"index":16
			},
			"pbrMetallicRoughness":{
				"baseColorFactor":[
					0.8199999928474426,
					0.8199999928474426,
					0.8199999928474426,
					1
				],
				"roughnessFactor":0.05000000074505806
			}
		},
		{
			"name":"Seats_Secondary",
			"normalTexture":{
				"index":17
			},
			"occlusionTexture":{
				"index":18
			},
			"pbrMetallicRoughness":{
				"baseColorFactor":[
					0.5035971403121948,
					0.4836575984954834,
					0.4709901213645935,
					1
				],
				"metallicFactor":0,
				"metallicRoughnessTexture":{
					"index":18
				}
			}
		}
	],
	"meshes":[
		{
			"name":"shell_1",
			"primitives":[
				{
					"attributes":{
						"POSITION":0,
						"NORMAL":1
					},
					"indices":2,
					"material":0
				}
			]
		},
		{
			"name":"Hull-Bottom_Base.001",
			"primitives":[
				{
					"attributes":{
						"POSITION":3,
						"NORMAL":4,
						"TEXCOORD_0":5,
						"TANGENT":6
					},
					"indices":7,
					"material":1
				}
			]
		},
		{
			"name":"Hull-Bottom_Trim.001",
			"primitives":[
				{
					"attributes":{
						"POSITION":8,
						"NORMAL":9,
						"TEXCOORD_0":10,
						"TANGENT":11
					},
					"indices":12,
					"material":2
				}
			]
		},
		{
			"name":"windshieldGlass.001",
			"primitives":[
				{
					"attributes":{
						"POSITION":13,
						"NORMAL":14,
						"TEXCOORD_0":15,
						"TANGENT":16
					},
					"indices":17,
					"material":3
				}
			]
		},
		{
			"name":"Controls.002",
			"primitives":[
				{
					"attributes":{
						"POSITION":18,
						"NORMAL":19,
						"TEXCOORD_0":20,
						"TANGENT":21
					},
					"indices":22,
					"material":4
				}
			]
		},
		{
			"name":"Wheel-Primary.002",
			"primitives":[
				{
					"attributes":{
						"POSITION":23,
						"NORMAL":24,
						"TEXCOORD_0":25,
						"TANGENT":26
					},
					"indices":27,
					"material":5
				}
			]
		},
		{
			"name":"Wheel-Tertiary.002",
			"primitives":[
				{
					"attributes":{
						"POSITION":28,
						"NORMAL":29,
						"TEXCOORD_0":30,
						"TANGENT":31
					},
					"indices":32,
					"material":6
				}
			]
		},
		{
			"name":"Table.001",
			"primitives":[
				{
					"attributes":{
						"POSITION":33,
						"NORMAL":34,
						"TEXCOORD_0":35,
						"TEXCOORD_1":36,
						"TANGENT":37
					},
					"indices":38,
					"material":7
				}
			]
		},
		{
			"name":"Cube",
			"primitives":[
				{
					"attributes":{
						"POSITION":39,
						"NORMAL":40,
						"TEXCOORD_0":41,
						"TANGENT":42
					},
					"indices":43
				}
			]
		},
		{
			"name":"Hull-Interior_Primary.004",
			"primitives":[
				{
					"attributes":{
						"POSITION":44,
						"NORMAL":45,
						"TEXCOORD_0":46,
						"TANGENT":47
					},
					"indices":48,
					"material":8
				}
			]
		},
		{
			"name":"Hull-Interior_Primary.006",
			"primitives":[
				{
					"attributes":{
						"POSITION":49,
						"NORMAL":50,
						"TEXCOORD_0":51,
						"TANGENT":52
					},
					"indices":53,
					"material":8
				}
			]
		},
		{
			"name":"Seats-Primary.004",
			"primitives":[
				{
					"attributes":{
						"POSITION":54,
						"NORMAL":55,
						"TEXCOORD_0":56,
						"TANGENT":57
					},
					"indices":58,
					"material":5
				}
			]
		},
		{
			"name":"Seats-Tertiary.005",
			"primitives":[
				{
					"attributes":{
						"POSITION":59,
						"NORMAL":60,
						"TEXCOORD_0":61,
						"TEXCOORD_1":62,
						"TANGENT":63
					},
					"indices":64,
					"material":6
				}
			]
		},
		{
			"name":"chromeParts.002",
			"primitives":[
				{
					"attributes":{
						"POSITION":65,
						"NORMAL":66,
						"TEXCOORD_0":67,
						"TANGENT":68
					},
					"indices":69,
					"material":9
				}
			]
		},
		{
			"name":"Seats-Secondary.002",
			"primitives":[
				{
					"attributes":{
						"POSITION":70,
						"NORMAL":71,
						"TEXCOORD_0":72,
						"TANGENT":73
					},
					"indices":74,
					"material":10
				}
			]
		}
	],
	"textures":[
		{
			"sampler":0,
			"source":0
		},
		{
			"sampler":0,
			"source":1
		},
		{
			"sampler":0,
			"source":0
		},
		{
			"sampler":0,
			"source":2
		},
		{
			"sampler":0,
			"source":3
		},
		{
			"sampler":0,
			"source":4
		},
		{
			"sampler":0,
			"source":5
		},
		{
			"sampler":0,
			"source":6
		},
		{
			"sampler":0,
			"source":5
		},
		{
			"sampler":0,
			"source":6
		},
		{
			"sampler":0,
			"source":7
		},
		{
			"sampler":0,
			"source":8
		},
		{
			"sampler":0,
			"source":9
		},
		{
			"sampler":0,
			"source":10
		},
		{
			"sampler":0,
			"source":11
		},
		{
			"sampler":0,
			"source":12
		},
		{
			"sampler":0,
			"source":13
		},
		{
			"sampler":0,
			"source":5
		},
		{
			"sampler":0,
			"source":6
		}
	],
	"images":[
		{
			"mimeType":"image/png",
			"name":"BottomHull_ambient_occlusion",
			"uri":"BottomHull_ambient_occlusion.png"
		},
		{
			"mimeType":"image/png",
			"name":"BottomHull_normal_base",
			"uri":"BottomHull_normal_base.png"
		},
		{
			"mimeType":"image/png",
			"name":"Controls_Normal",
			"uri":"Controls_Normal.png"
		},
		{
			"mimeType":"image/png",
			"name":"Controls_AO-Controls_Roughness-Controls_Metallic",
			"uri":"Controls_AO-Controls_Roughness-Controls_Metallic.png"
		},
		{
			"mimeType":"image/png",
			"name":"Controls_Albedo",
			"uri":"Controls_Albedo.png"
		},
		{
			"mimeType":"image/png",
			"name":"WheelSeats_Normal",
			"uri":"WheelSeats_Normal.png"
		},
		{
			"mimeType":"image/png",
			"name":"WheelSeats_AO-WheelSeats_Roughness",
			"uri":"WheelSeats_AO-WheelSeats_Roughness.png"
		},
		{
			"mimeType":"image/png",
			"name":"table-jets_normal",
			"uri":"table-jets_normal.png"
		},
		{
			"mimeType":"image/png",
			"name":"table-jets_ambient_occlusion-table-jets_roughness-table-jets_metallic",
			"uri":"table-jets_ambient_occlusion-table-jets_roughness-table-jets_metallic.png"
		},
		{
			"mimeType":"image/png",
			"name":"table-jets_basecolor",
			"uri":"table-jets_basecolor.png"
		},
		{
			"mimeType":"image/png",
			"name":"Hull-Interior_normal_base",
			"uri":"Hull-Interior_normal_base.png"
		},
		{
			"mimeType":"image/png",
			"name":"Hull-Interior_ambient_occlusion",
			"uri":"Hull-Interior_ambient_occlusion.png"
		},
		{
			"mimeType":"image/png",
			"name":"ChromeParts_normals",
			"uri":"ChromeParts_normals.png"
		},
		{
			"mimeType":"image/png",
			"name":"ChromeParts_ao",
			"uri":"ChromeParts_ao.png"
		}
	],
	"accessors":[
		{
			"bufferView":0,
			"componentType":5126,
			"count":220720,
			"max":[
				2.438011407852173,
				3.3999831676483154,
				8.42460823059082
			],
			"min":[
				-2.4380123615264893,
				0.3084753155708313,
				-11.821256637573242
			],
			"type":"VEC3"
		},
		{
			"bufferView":1,
			"componentType":5126,
			"count":220720,
			"type":"VEC3"
		},
		{
			"bufferView":2,
			"componentType":5125,
			"count":865245,
			"type":"SCALAR"
		},
		{
			"bufferView":3,
			"componentType":5126,
			"count":5098,
			"max":[
				2.295626401901245,
				1.2866060733795166,
				7.576948642730713
			],
			"min":[
				-2.295626401901245,
				-0.028782479465007782,
				-8.178510665893555
			],
			"type":"VEC3"
		},
		{
			"bufferView":4,
			"componentType":5126,
			"count":5098,
			"type":"VEC3"
		},
		{
			"bufferView":5,
			"componentType":5126,
			"count":5098,
			"type":"VEC2"
		},
		{
			"bufferView":6,
			"componentType":5126,
			"count":5098,
			"type":"VEC4"
		},
		{
			"bufferView":7,
			"componentType":5123,
			"count":23196,
			"type":"SCALAR"
		},
		{
			"bufferView":8,
			"componentType":5126,
			"count":2624,
			"max":[
				2.440703868865967,
				1.9411873817443848,
				8.424153327941895
			],
			"min":[
				-2.440703868865967,
				0.7434844970703125,
				-8.220922470092773
			],
			"type":"VEC3"
		},
		{
			"bufferView":9,
			"componentType":5126,
			"count":2624,
			"type":"VEC3"
		},
		{
			"bufferView":10,
			"componentType":5126,
			"count":2624,
			"type":"VEC2"
		},
		{
			"bufferView":11,
			"componentType":5126,
			"count":2624,
			"type":"VEC4"
		},
		{
			"bufferView":12,
			"componentType":5123,
			"count":8970,
			"type":"SCALAR"
		},
		{
			"bufferView":13,
			"componentType":5126,
			"count":188,
			"max":[
				1.6074103116989136,
				2.981110095977783,
				1.45561683177948
			],
			"min":[
				-1.6074103116989136,
				1.9201548099517822,
				-4.879323959350586
			],
			"type":"VEC3"
		},
		{
			"bufferView":14,
			"componentType":5126,
			"count":188,
			"type":"VEC3"
		},
		{
			"bufferView":15,
			"componentType":5126,
			"count":188,
			"type":"VEC2"
		},
		{
			"bufferView":16,
			"componentType":5126,
			"count":188,
			"type":"VEC4"
		},
		{
			"bufferView":17,
			"componentType":5123,
			"count":546,
			"type":"SCALAR"
		},
		{
			"bufferView":18,
			"componentType":5126,
			"count":6610,
			"max":[
				-0.5405336022377014,
				2.1960933208465576,
				-1.0444369316101074
			],
			"min":[
				-1.2692524194717407,
				1.8124098777770996,
				-1.6274651288986206
			],
			"type":"VEC3"
		},
		{
			"bufferView":19,
			"componentType":5126,
			"count":6610,
			"type":"VEC3"
		},
		{
			"bufferView":20,
			"componentType":5126,
			"count":6610,
			"type":"VEC2"
		},
		{
			"bufferView":21,
			"componentType":5126,
			"count":6610,
			"type":"VEC4"
		},
		{
			"bufferView":22,
			"componentType":5123,
			"count":20601,
			"type":"SCALAR"
		},
		{
			"bufferView":23,
			"componentType":5126,
			"count":2204,
			"max":[
				-0.6185569167137146,
				2.145679235458374,
				-1.5333579778671265
			],
			"min":[
				-1.0808130502700806,
				1.932261347770691,
				-1.6291494369506836
			],
			"type":"VEC3"
		},
		{
			"bufferView":24,
			"componentType":5126,
			"count":2204,
			"type":"VEC3"
		},
		{
			"bufferView":25,
			"componentType":5126,
			"count":2204,
			"type":"VEC2"
		},
		{
			"bufferView":26,
			"componentType":5126,
			"count":2204,
			"type":"VEC4"
		},
		{
			"bufferView":27,
			"componentType":5123,
			"count":12084,
			"type":"SCALAR"
		},
		{
			"bufferView":28,
			"componentType":5126,
			"count":1558,
			"max":[
				-0.6350732445716858,
				2.240861654281616,
				-1.507084846496582
			],
			"min":[
				-1.0642969608306885,
				1.7954447269439697,
				-1.667931079864502
			],
			"type":"VEC3"
		},
		{
			"bufferView":29,
			"componentType":5126,
			"count":1558,
			"type":"VEC3"
		},
		{
			"bufferView":30,
			"componentType":5126,
			"count":1558,
			"type":"VEC2"
		},
		{
			"bufferView":31,
			"componentType":5126,
			"count":1558,
			"type":"VEC4"
		},
		{
			"bufferView":32,
			"componentType":5123,
			"count":7896,
			"type":"SCALAR"
		},
		{
			"bufferView":33,
			"componentType":5126,
			"count":1855,
			"max":[
				1.273737907409668,
				1.3276840448379517,
				-2.956141471862793
			],
			"min":[
				0.5163260698318481,
				0.8233166933059692,
				-3.787238597869873
			],
			"type":"VEC3"
		},
		{
			"bufferView":34,
			"componentType":5126,
			"count":1855,
			"type":"VEC3"
		},
		{
			"bufferView":35,
			"componentType":5126,
			"count":1855,
			"type":"VEC2"
		},
		{
			"bufferView":36,
			"componentType":5126,
			"count":1855,
			"type":"VEC2"
		},
		{
			"bufferView":37,
			"componentType":5126,
			"count":1855,
			"type":"VEC4"
		},
		{
			"bufferView":38,
			"componentType":5123,
			"count":5940,
			"type":"SCALAR"
		},
		{
			"bufferView":39,
			"componentType":5126,
			"count":48,
			"max":[
				2.316359043121338,
				1.2268943786621094,
				-7.451328754425049
			],
			"min":[
				-2.316359043121338,
				0.38164758682250977,
				-11.309577941894531
			],
			"type":"VEC3"
		},
		{
			"bufferView":40,
			"componentType":5126,
			"count":48,
			"type":"VEC3"
		},
		{
			"bufferView":41,
			"componentType":5126,
			"count":48,
			"type":"VEC2"
		},
		{
			"bufferView":42,
			"componentType":5126,
			"count":48,
			"type":"VEC4"
		},
		{
			"bufferView":43,
			"componentType":5123,
			"count":72,
			"type":"SCALAR"
		},
		{
			"bufferView":44,
			"componentType":5126,
			"count":1412,
			"max":[
				1.69553542137146,
				0.4302580654621124,
				-8.736603736877441
			],
			"min":[
				-1.6955353021621704,
				0.3877456486225128,
				-10.045875549316406
			],
			"type":"VEC3"
		},
		{
			"bufferView":45,
			"componentType":5126,
			"count":1412,
			"type":"VEC3"
		},
		{
			"bufferView":46,
			"componentType":5126,
			"count":1412,
			"type":"VEC2"
		},
		{
			"bufferView":47,
			"componentType":5126,
			"count":1412,
			"type":"VEC4"
		},
		{
			"bufferView":48,
			"componentType":5123,
			"count":6480,
			"type":"SCALAR"
		},
		{
			"bufferView":49,
			"componentType":5126,
			"count":9684,
			"max":[
				1.4433460235595703,
				1.2500250339508057,
				-7.437060832977295
			],
			"min":[
				-1.4433456659317017,
				0.3729242980480194,
				-10.93589973449707
			],
			"type":"VEC3"
		},
		{
			"bufferView":50,
			"componentType":5126,
			"count":9684,
			"type":"VEC3"
		},
		{
			"bufferView":51,
			"componentType":5126,
			"count":9684,
			"type":"VEC2"
		},
		{
			"bufferView":52,
			"componentType":5126,
			"count":9684,
			"type":"VEC4"
		},
		{
			"bufferView":53,
			"componentType":5123,
			"count":46608,
			"type":"SCALAR"
		},
		{
			"bufferView":54,
			"componentType":5126,
			"count":12052,
			"max":[
				1.1912071704864502,
				2.0916366577148438,
				-1.7632503509521484
			],
			"min":[
				-1.2137398719787598,
				0.6704461574554443,
				-10.80737590789795
			],
			"type":"VEC3"
		},
		{
			"bufferView":55,
			"componentType":5126,
			"count":12052,
			"type":"VEC3"
		},
		{
			"bufferView":56,
			"componentType":5126,
			"count":12052,
			"type":"VEC2"
		},
		{
			"bufferView":57,
			"componentType":5126,
			"count":12052,
			"type":"VEC4"
		},
		{
			"bufferView":58,
			"componentType":5123,
			"count":57972,
			"type":"SCALAR"
		},
		{
			"bufferView":59,
			"componentType":5126,
			"count":5792,
			"max":[
				1.1974483728408813,
				1.7170089483261108,
				-1.7584905624389648
			],
			"min":[
				-1.2107070684432983,
				0.664803683757782,
				-10.709409713745117
			],
			"type":"VEC3"
		},
		{
			"bufferView":60,
			"componentType":5126,
			"count":5792,
			"type":"VEC3"
		},
		{
			"bufferView":61,
			"componentType":5126,
			"count":5792,
			"type":"VEC2"
		},
		{
			"bufferView":62,
			"componentType":5126,
			"count":5792,
			"type":"VEC2"
		},
		{
			"bufferView":63,
			"componentType":5126,
			"count":5792,
			"type":"VEC4"
		},
		{
			"bufferView":64,
			"componentType":5123,
			"count":28392,
			"type":"SCALAR"
		},
		{
			"bufferView":65,
			"componentType":5126,
			"count":16456,
			"max":[
				1.6562600135803223,
				1.3907322883605957,
				-2.150582790374756
			],
			"min":[
				-1.6562601327896118,
				0.41251155734062195,
				-10.321133613586426
			],
			"type":"VEC3"
		},
		{
			"bufferView":66,
			"componentType":5126,
			"count":16456,
			"type":"VEC3"
		},
		{
			"bufferView":67,
			"componentType":5126,
			"count":16456,
			"type":"VEC2"
		},
		{
			"bufferView":68,
			"componentType":5126,
			"count":16456,
			"type":"VEC4"
		},
		{
			"bufferView":69,
			"componentType":5123,
			"count":72408,
			"type":"SCALAR"
		},
		{
			"bufferView":70,
			"componentType":5126,
			"count":18935,
			"max":[
				1.3870006799697876,
				2.0915446281433105,
				-1.5359433889389038
			],
			"min":[
				-1.222516655921936,
				0.497875452041626,
				-10.735617637634277
			],
			"type":"VEC3"
		},
		{
			"bufferView":71,
			"componentType":5126,
			"count":18935,
			"type":"VEC3"
		},
		{
			"bufferView":72,
			"componentType":5126,
			"count":18935,
			"type":"VEC2"
		},
		{
			"bufferView":73,
			"componentType":5126,
			"count":18935,
			"type":"VEC4"
		},
		{
			"bufferView":74,
			"componentType":5123,
			"count":94404,
			"type":"SCALAR"
		}
	],
	"bufferViews":[
		{
			"buffer":0,
			"byteLength":2648640,
			"byteOffset":0,
			"target":34962
		},
		{
			"buffer":0,
			"byteLength":2648640,
			"byteOffset":2648640,
			"target":34962
		},
		{
			"buffer":0,
			"byteLength":3460980,
			"byteOffset":5297280,
			"target":34963
		},
		{
			"buffer":0,
			"byteLength":61176,
			"byteOffset":8758260,
			"target":34962
		},
		{
			"buffer":0,
			"byteLength":61176,
			"byteOffset":8819436,
			"target":34962
		},
		{
			"buffer":0,
			"byteLength":40784,
			"byteOffset":8880612,
			"target":34962
		},
		{
			"buffer":0,
			"byteLength":81568,
			"byteOffset":8921396,
			"target":34962
		},
		{
			"buffer":0,
			"byteLength":46392,
			"byteOffset":9002964,
			"target":34963
		},
		{
			"buffer":0,
			"byteLength":31488,
			"byteOffset":9049356,
			"target":34962
		},
		{
			"buffer":0,
			"byteLength":31488,
			"byteOffset":9080844,
			"target":34962
		},
		{
			"buffer":0,
			"byteLength":20992,
			"byteOffset":9112332,
			"target":34962
		},
		{
			"buffer":0,
			"byteLength":41984,
			"byteOffset":9133324,
			"target":34962
		},
		{
			"buffer":0,
			"byteLength":17940,
			"byteOffset":9175308,
			"target":34963
		},
		{
			"buffer":0,
			"byteLength":2256,
			"byteOffset":9193248,
			"target":34962
		},
		{
			"buffer":0,
			"byteLength":2256,
			"byteOffset":9195504,
			"target":34962
		},
		{
			"buffer":0,
			"byteLength":1504,
			"byteOffset":9197760,
			"target":34962
		},
		{
			"buffer":0,
			"byteLength":3008,
			"byteOffset":9199264,
			"target":34962
		},
		{
			"buffer":0,
			"byteLength":1092,
			"byteOffset":9202272,
			"target":34963
		},
		{
			"buffer":0,
			"byteLength":79320,
			"byteOffset":9203364,
			"target":34962
		},
		{
			"buffer":0,
			"byteLength":79320,
			"byteOffset":9282684,
			"target":34962
		},
		{
			"buffer":0,
			"byteLength":52880,
			"byteOffset":9362004,
			"target":34962
		},
		{
			"buffer":0,
			"byteLength":105760,
			"byteOffset":9414884,
			"target":34962
		},
		{
			"buffer":0,
			"byteLength":41202,
			"byteOffset":9520644,
			"target":34963
		},
		{
			"buffer":0,
			"byteLength":26448,
			"byteOffset":9561848,
			"target":34962
		},
		{
			"buffer":0,
			"byteLength":26448,
			"byteOffset":9588296,
			"target":34962
		},
		{
			"buffer":0,
			"byteLength":17632,
			"byteOffset":9614744,
			"target":34962
		},
		{
			"buffer":0,
			"byteLength":35264,
			"byteOffset":9632376,
			"target":34962
		},
		{
			"buffer":0,
			"byteLength":24168,
			"byteOffset":9667640,
			"target":34963
		},
		{
			"buffer":0,
			"byteLength":18696,
			"byteOffset":9691808,
			"target":34962
		},
		{
			"buffer":0,
			"byteLength":18696,
			"byteOffset":9710504,
			"target":34962
		},
		{
			"buffer":0,
			"byteLength":12464,
			"byteOffset":9729200,
			"target":34962
		},
		{
			"buffer":0,
			"byteLength":24928,
			"byteOffset":9741664,
			"target":34962
		},
		{
			"buffer":0,
			"byteLength":15792,
			"byteOffset":9766592,
			"target":34963
		},
		{
			"buffer":0,
			"byteLength":22260,
			"byteOffset":9782384,
			"target":34962
		},
		{
			"buffer":0,
			"byteLength":22260,
			"byteOffset":9804644,
			"target":34962
		},
		{
			"buffer":0,
			"byteLength":14840,
			"byteOffset":9826904,
			"target":34962
		},
		{
			"buffer":0,
			"byteLength":14840,
			"byteOffset":9841744,
			"target":34962
		},
		{
			"buffer":0,
			"byteLength":29680,
			"byteOffset":9856584,
			"target":34962
		},
		{
			"buffer":0,
			"byteLength":11880,
			"byteOffset":9886264,
			"target":34963
		},
		{
			"buffer":0,
			"byteLength":576,
			"byteOffset":9898144,
			"target":34962
		},
		{
			"buffer":0,
			"byteLength":576,
			"byteOffset":9898720,
			"target":34962
		},
		{
			"buffer":0,
			"byteLength":384,
			"byteOffset":9899296,
			"target":34962
		},
		{
			"buffer":0,
			"byteLength":768,
			"byteOffset":9899680,
			"target":34962
		},
		{
			"buffer":0,
			"byteLength":144,
			"byteOffset":9900448,
			"target":34963
		},
		{
			"buffer":0,
			"byteLength":16944,
			"byteOffset":9900592,
			"target":34962
		},
		{
			"buffer":0,
			"byteLength":16944,
			"byteOffset":9917536,
			"target":34962
		},
		{
			"buffer":0,
			"byteLength":11296,
			"byteOffset":9934480,
			"target":34962
		},
		{
			"buffer":0,
			"byteLength":22592,
			"byteOffset":9945776,
			"target":34962
		},
		{
			"buffer":0,
			"byteLength":12960,
			"byteOffset":9968368,
			"target":34963
		},
		{
			"buffer":0,
			"byteLength":116208,
			"byteOffset":9981328,
			"target":34962
		},
		{
			"buffer":0,
			"byteLength":116208,
			"byteOffset":10097536,
			"target":34962
		},
		{
			"buffer":0,
			"byteLength":77472,
			"byteOffset":10213744,
			"target":34962
		},
		{
			"buffer":0,
			"byteLength":154944,
			"byteOffset":10291216,
			"target":34962
		},
		{
			"buffer":0,
			"byteLength":93216,
			"byteOffset":10446160,
			"target":34963
		},
		{
			"buffer":0,
			"byteLength":144624,
			"byteOffset":10539376,
			"target":34962
		},
		{
			"buffer":0,
			"byteLength":144624,
			"byteOffset":10684000,
			"target":34962
		},
		{
			"buffer":0,
			"byteLength":96416,
			"byteOffset":10828624,
			"target":34962
		},
		{
			"buffer":0,
			"byteLength":192832,
			"byteOffset":10925040,
			"target":34962
		},
		{
			"buffer":0,
			"byteLength":115944,
			"byteOffset":11117872,
			"target":34963
		},
		{
			"buffer":0,
			"byteLength":69504,
			"byteOffset":11233816,
			"target":34962
		},
		{
			"buffer":0,
			"byteLength":69504,
			"byteOffset":11303320,
			"target":34962
		},
		{
			"buffer":0,
			"byteLength":46336,
			"byteOffset":11372824,
			"target":34962
		},
		{
			"buffer":0,
			"byteLength":46336,
			"byteOffset":11419160,
			"target":34962
		},
		{
			"buffer":0,
			"byteLength":92672,
			"byteOffset":11465496,
			"target":34962
		},
		{
			"buffer":0,
			"byteLength":56784,
			"byteOffset":11558168,
			"target":34963
		},
		{
			"buffer":0,
			"byteLength":197472,
			"byteOffset":11614952,
			"target":34962
		},
		{
			"buffer":0,
			"byteLength":197472,
			"byteOffset":11812424,
			"target":34962
		},
		{
			"buffer":0,
			"byteLength":131648,
			"byteOffset":12009896,
			"target":34962
		},
		{
			"buffer":0,
			"byteLength":263296,
			"byteOffset":12141544,
			"target":34962
		},
		{
			"buffer":0,
			"byteLength":144816,
			"byteOffset":12404840,
			"target":34963
		},
		{
			"buffer":0,
			"byteLength":227220,
			"byteOffset":12549656,
			"target":34962
		},
		{
			"buffer":0,
			"byteLength":227220,
			"byteOffset":12776876,
			"target":34962
		},
		{
			"buffer":0,
			"byteLength":151480,
			"byteOffset":13004096,
			"target":34962
		},
		{
			"buffer":0,
			"byteLength":302960,
			"byteOffset":13155576,
			"target":34962
		},
		{
			"buffer":0,
			"byteLength":188808,
			"byteOffset":13458536,
			"target":34963
		}
	],
	"samplers":[
		{
			"magFilter":9729,
			"minFilter":9987
		}
	],
	"buffers":[
		{
			"byteLength":13647344,
			"uri":"scoutsBoat.bin"
		}
	]
}
