{
	"asset":{
		"generator":"Khronos glTF Blender I/O v3.6.28",
		"version":"2.0"
	},
	"scene":0,
	"scenes":[
		{
			"name":"Scene",
			"nodes":[
				2,
				3,
				4,
				5,
				6,
				7,
				8,
				9,
				10,
				11,
				12,
				13,
				14,
				15,
				16,
				17,
				18,
				19,
				20,
				21,
				22,
				23,
				24,
				25,
				26,
				27,
				28
			]
		}
	],
	"nodes":[
		{
			"mesh":0,
			"name":"Bimini-Canopy",
			"rotation":[
				0.70710688829422,
				0,
				0,
				0.7071066498756409
			],
			"scale":[
				10,
				9.999999046325684,
				9.999999046325684
			]
		},
		{
			"mesh":1,
			"name":"Bimini-Frame.001"
		},
		{
			"children":[
				0,
				1
			],
			"name":"Bimini Top"
		},
		{
			"mesh":2,
			"name":"Cavities",
			"translation":[
				0.10401243716478348,
				1.2204015254974365,
				3.831624746322632
			]
		},
		{
			"mesh":3,
			"name":"chromeParts"
		},
		{
			"mesh":4,
			"name":"Controls",
			"rotation":[
				0,
				1,
				0,
				7.549790126404332e-08
			],
			"translation":[
				-1.3862826824188232,
				1.3802456855773926,
				0.2612149119377136
			]
		},
		{
			"mesh":5,
			"name":"Controls-Atlas",
			"rotation":[
				0,
				1,
				0,
				7.549790126404332e-08
			],
			"translation":[
				-1.3862826824188232,
				1.3802456855773926,
				0.2612149119377136
			]
		},
		{
			"mesh":6,
			"name":"Controls-Glass",
			"rotation":[
				0,
				1,
				0,
				7.549790126404332e-08
			],
			"translation":[
				-1.3862826824188232,
				1.3802456855773926,
				0.2612149119377136
			]
		},
		{
			"mesh":7,
			"name":"FloorMats",
			"rotation":[
				0,
				-0.7071068286895752,
				0,
				0.7071067094802856
			],
			"translation":[
				-0.028314927592873573,
				0,
				-0.00966066773980856
			]
		},
		{
			"mesh":8,
			"name":"Hull-Bottom_Base"
		},
		{
			"mesh":9,
			"name":"Hull-Bottom_Trim"
		},
		{
			"mesh":10,
			"name":"Hull-Interior_Primary",
			"translation":[
				0,
				0,
				-0.002198748057708144
			]
		},
		{
			"mesh":11,
			"name":"Hull-Interior_Secondary",
			"translation":[
				0,
				0,
				-0.002198748057708144
			]
		},
		{
			"mesh":12,
			"name":"Hull-Interior_Tertiary",
			"translation":[
				0,
				0,
				-0.002198748057708144
			]
		},
		{
			"mesh":13,
			"name":"Hull-Interior_Trim",
			"translation":[
				0,
				0,
				-0.002198748057708144
			]
		},
		{
			"mesh":14,
			"name":"Jets",
			"translation":[
				0.2411443591117859,
				0.26547497510910034,
				-3.300597667694092
			]
		},
		{
			"mesh":15,
			"name":"Seats-Primary"
		},
		{
			"mesh":16,
			"name":"Seats-Secondary"
		},
		{
			"mesh":17,
			"name":"Seats-Tertiary"
		},
		{
			"mesh":18,
			"name":"Speakers",
			"translation":[
				0,
				0.006282104644924402,
				-0.32950109243392944
			]
		},
		{
			"mesh":19,
			"name":"Speakers-Canopy",
			"translation":[
				-1.5104594230651855,
				2.641176462173462,
				-0.3364529013633728
			]
		},
		{
			"mesh":20,
			"name":"Table",
			"translation":[
				0.8950318098068237,
				1.296735167503357,
				-3.3716888427734375
			]
		},
		{
			"mesh":21,
			"name":"Wheel-Primary",
			"translation":[
				-0.849593997001648,
				1.7192587852478027,
				0.2839537262916565
			]
		},
		{
			"mesh":22,
			"name":"Wheel-Tertiary",
			"translation":[
				-0.849593997001648,
				1.7192587852478027,
				0.2839537262916565
			]
		},
		{
			"mesh":23,
			"name":"windshield"
		},
		{
			"mesh":24,
			"name":"windshieldGlass",
			"rotation":[
				0,
				1,
				0,
				7.549790126404332e-08
			],
			"scale":[
				10,
				10,
				10
			]
		},
		{
			"mesh":25,
			"name":"hullDecals"
		},
		{
			"mesh":26,
			"name":"safetyDecals"
		},
		{
			"mesh":27,
			"name":"chromeFrame.001"
		}
	],
	"materials":[
		{
			"name":"BiminiCanopy",
			"normalTexture":{
				"index":0
			},
			"occlusionTexture":{
				"index":1
			},
			"pbrMetallicRoughness":{
				"baseColorFactor":[
					0.6258993148803711,
					0.6078878045082092,
					0.5718647837638855,
					1
				],
				"metallicFactor":0,
				"roughnessFactor":0.8399999737739563
			}
		},
		{
			"name":"BiminiFrame",
			"normalTexture":{
				"index":2
			},
			"occlusionTexture":{
				"index":3
			},
			"pbrMetallicRoughness":{
				"roughnessFactor":0.20000000298023224
			}
		},
		{
			"name":"Cavities",
			"pbrMetallicRoughness":{
				"baseColorFactor":[
					0,
					0,
					0,
					1
				],
				"metallicFactor":0
			}
		},
		{
			"name":"chromeParts",
			"normalTexture":{
				"index":4
			},
			"occlusionTexture":{
				"index":5
			},
			"pbrMetallicRoughness":{
				"baseColorFactor":[
					0.8199999928474426,
					0.8199999928474426,
					0.8199999928474426,
					1
				],
				"roughnessFactor":0.05000000074505806
			}
		},
		{
			"name":"Controls",
			"normalTexture":{
				"index":6
			},
			"occlusionTexture":{
				"index":7
			},
			"pbrMetallicRoughness":{
				"baseColorTexture":{
					"index":8
				},
				"metallicRoughnessTexture":{
					"index":7
				}
			}
		},
		{
			"alphaCutoff":0.5,
			"alphaMode":"MASK",
			"name":"Controls-Atlas",
			"pbrMetallicRoughness":{
				"baseColorTexture":{
					"index":9
				},
				"metallicFactor":0,
				"metallicRoughnessTexture":{
					"index":10
				}
			}
		},
		{
			"alphaMode":"BLEND",
			"name":"Controls-GlassMat",
			"pbrMetallicRoughness":{
				"baseColorFactor":[
					0.5,
					0.5,
					0.5,
					0.5
				],
				"metallicFactor":0.25,
				"roughnessFactor":0
			}
		},
		{
			"name":"FloorMats",
			"normalTexture":{
				"index":11
			},
			"occlusionTexture":{
				"index":12
			},
			"pbrMetallicRoughness":{
				"baseColorTexture":{
					"index":13
				},
				"metallicFactor":0,
				"metallicRoughnessTexture":{
					"index":12
				}
			}
		},
		{
			"name":"Hull-Bottom_Base",
			"normalTexture":{
				"index":14
			},
			"occlusionTexture":{
				"index":15
			},
			"pbrMetallicRoughness":{
				"baseColorFactor":[
					0.9419999718666077,
					0.9419999718666077,
					0.9419999718666077,
					1
				],
				"metallicFactor":0,
				"roughnessFactor":0.10000000149011612
			}
		},
		{
			"name":"Hull-Bottom_Trim",
			"normalTexture":{
				"index":16
			},
			"occlusionTexture":{
				"index":17
			},
			"pbrMetallicRoughness":{
				"baseColorFactor":[
					0.0430000014603138,
					0.0430000014603138,
					0.0430000014603138,
					1
				],
				"metallicFactor":0,
				"roughnessFactor":0.10000000149011612
			}
		},
		{
			"name":"Hull-Interior_Primary",
			"normalTexture":{
				"index":18
			},
			"occlusionTexture":{
				"index":19
			},
			"pbrMetallicRoughness":{
				"baseColorFactor":[
					0.9424460530281067,
					0.9424460530281067,
					0.9424460530281067,
					1
				],
				"metallicFactor":0,
				"roughnessFactor":0.10000000149011612
			}
		},
		{
			"name":"Hull-Interior_Secondary",
			"normalTexture":{
				"index":20
			},
			"occlusionTexture":{
				"index":21
			},
			"pbrMetallicRoughness":{
				"baseColorFactor":[
					0.7122302055358887,
					0.6887484788894653,
					0.645618736743927,
					1
				],
				"metallicFactor":0,
				"roughnessFactor":0.30000001192092896
			}
		},
		{
			"name":"Hull-Interior_Tertiary",
			"normalTexture":{
				"index":22
			},
			"occlusionTexture":{
				"index":23
			},
			"pbrMetallicRoughness":{
				"baseColorFactor":[
					0.06474820524454117,
					0.06474820524454117,
					0.06474820524454117,
					1
				],
				"metallicFactor":0,
				"roughnessFactor":0.30000001192092896
			}
		},
		{
			"name":"Hull-Interior_Trim",
			"normalTexture":{
				"index":24
			},
			"occlusionTexture":{
				"index":25
			},
			"pbrMetallicRoughness":{
				"baseColorFactor":[
					0.04316546767950058,
					0.04316546767950058,
					0.04316546767950058,
					1
				],
				"metallicFactor":0,
				"roughnessFactor":0.10000000149011612
			}
		},
		{
			"name":"Jets",
			"normalTexture":{
				"index":26
			},
			"occlusionTexture":{
				"index":27
			},
			"pbrMetallicRoughness":{
				"baseColorFactor":[
					0.007194244768470526,
					0.007194244768470526,
					0.007194244768470526,
					1
				],
				"metallicFactor":0,
				"metallicRoughnessTexture":{
					"index":27
				}
			}
		},
		{
			"name":"Seats_Primary",
			"normalTexture":{
				"index":28
			},
			"occlusionTexture":{
				"index":29
			},
			"pbrMetallicRoughness":{
				"baseColorFactor":[
					0.7122302055358887,
					0.6887484788894653,
					0.645618736743927,
					1
				],
				"metallicFactor":0,
				"metallicRoughnessTexture":{
					"index":29
				}
			}
		},
		{
			"name":"Seats_Secondary",
			"normalTexture":{
				"index":30
			},
			"occlusionTexture":{
				"index":31
			},
			"pbrMetallicRoughness":{
				"baseColorFactor":[
					0.5035971403121948,
					0.4836575984954834,
					0.4709901213645935,
					1
				],
				"metallicFactor":0,
				"metallicRoughnessTexture":{
					"index":31
				}
			}
		},
		{
			"name":"Seats_Tertiary",
			"normalTexture":{
				"index":32
			},
			"occlusionTexture":{
				"index":33
			},
			"pbrMetallicRoughness":{
				"baseColorFactor":[
					0.06474820524454117,
					0.06474820524454117,
					0.06474820524454117,
					1
				],
				"metallicFactor":0,
				"metallicRoughnessTexture":{
					"index":33
				}
			}
		},
		{
			"name":"Speakers",
			"normalTexture":{
				"index":34
			},
			"occlusionTexture":{
				"index":35
			},
			"pbrMetallicRoughness":{
				"baseColorTexture":{
					"index":36
				},
				"metallicRoughnessTexture":{
					"index":37
				}
			}
		},
		{
			"name":"Table",
			"normalTexture":{
				"index":38
			},
			"occlusionTexture":{
				"index":39
			},
			"pbrMetallicRoughness":{
				"baseColorTexture":{
					"index":40
				},
				"metallicRoughnessTexture":{
					"index":39
				}
			}
		},
		{
			"name":"Windshield",
			"normalTexture":{
				"index":41
			},
			"occlusionTexture":{
				"index":42
			},
			"pbrMetallicRoughness":{
				"baseColorTexture":{
					"index":43
				},
				"metallicRoughnessTexture":{
					"index":42
				}
			}
		},
		{
			"alphaMode":"BLEND",
			"name":"Glass",
			"pbrMetallicRoughness":{
				"baseColorFactor":[
					0.8199999928474426,
					0.8199999928474426,
					0.8199999928474426,
					0.19999998807907104
				],
				"metallicFactor":0.75,
				"roughnessFactor":0.15000000596046448
			}
		},
		{
			"alphaMode":"BLEND",
			"name":"hullDecal",
			"pbrMetallicRoughness":{
				"baseColorTexture":{
					"index":44
				},
				"metallicFactor":0,
				"roughnessFactor":0.10000000149011612
			}
		},
		{
			"name":"SafetyDecal",
			"pbrMetallicRoughness":{
				"baseColorTexture":{
					"index":45
				},
				"metallicFactor":0,
				"roughnessFactor":0
			}
		},
		{
			"name":"chromeFrame",
			"normalTexture":{
				"index":46
			},
			"occlusionTexture":{
				"index":47
			},
			"pbrMetallicRoughness":{
				"baseColorFactor":[
					0.8199999928474426,
					0.8199999928474426,
					0.8199999928474426,
					1
				],
				"roughnessFactor":0.05000000074505806
			}
		}
	],
	"meshes":[
		{
			"name":"Bimini-Canopy",
			"primitives":[
				{
					"attributes":{
						"POSITION":0,
						"NORMAL":1,
						"TEXCOORD_0":2,
						"TANGENT":3
					},
					"indices":4,
					"material":0
				}
			]
		},
		{
			"name":"Bimini-Frame.001",
			"primitives":[
				{
					"attributes":{
						"POSITION":5,
						"NORMAL":6,
						"TEXCOORD_0":7,
						"TANGENT":8
					},
					"indices":9,
					"material":1
				}
			]
		},
		{
			"name":"Cavities",
			"primitives":[
				{
					"attributes":{
						"POSITION":10,
						"NORMAL":11,
						"TEXCOORD_0":12,
						"TANGENT":13
					},
					"indices":14,
					"material":2
				}
			]
		},
		{
			"name":"chromeParts",
			"primitives":[
				{
					"attributes":{
						"POSITION":15,
						"NORMAL":16,
						"TEXCOORD_0":17,
						"TANGENT":18
					},
					"indices":19,
					"material":3
				}
			]
		},
		{
			"name":"Controls",
			"primitives":[
				{
					"attributes":{
						"POSITION":20,
						"NORMAL":21,
						"TEXCOORD_0":22,
						"TANGENT":23
					},
					"indices":24,
					"material":4
				}
			]
		},
		{
			"name":"Controls-Atlas",
			"primitives":[
				{
					"attributes":{
						"POSITION":25,
						"NORMAL":26,
						"TEXCOORD_0":27,
						"TANGENT":28
					},
					"indices":29,
					"material":5
				}
			]
		},
		{
			"name":"Controls-Glass",
			"primitives":[
				{
					"attributes":{
						"POSITION":30,
						"NORMAL":31,
						"TEXCOORD_0":32,
						"TANGENT":33
					},
					"indices":34,
					"material":6
				}
			]
		},
		{
			"name":"FloorMats",
			"primitives":[
				{
					"attributes":{
						"POSITION":35,
						"NORMAL":36,
						"TEXCOORD_0":37,
						"TANGENT":38
					},
					"indices":39,
					"material":7
				}
			]
		},
		{
			"name":"Hull-Bottom_Base",
			"primitives":[
				{
					"attributes":{
						"POSITION":40,
						"NORMAL":41,
						"TEXCOORD_0":42,
						"TANGENT":43
					},
					"indices":44,
					"material":8
				}
			]
		},
		{
			"name":"Hull-Bottom_Trim",
			"primitives":[
				{
					"attributes":{
						"POSITION":45,
						"NORMAL":46,
						"TEXCOORD_0":47,
						"TANGENT":48
					},
					"indices":49,
					"material":9
				}
			]
		},
		{
			"name":"Hull-Interior_Primary",
			"primitives":[
				{
					"attributes":{
						"POSITION":50,
						"NORMAL":51,
						"TEXCOORD_0":52,
						"TANGENT":53
					},
					"indices":54,
					"material":10
				}
			]
		},
		{
			"name":"Hull-Interior_Secondary",
			"primitives":[
				{
					"attributes":{
						"POSITION":55,
						"NORMAL":56,
						"TEXCOORD_0":57,
						"TANGENT":58
					},
					"indices":59,
					"material":11
				}
			]
		},
		{
			"name":"Hull-Interior_Tertiary",
			"primitives":[
				{
					"attributes":{
						"POSITION":60,
						"NORMAL":61,
						"TEXCOORD_0":62,
						"TANGENT":63
					},
					"indices":64,
					"material":12
				}
			]
		},
		{
			"name":"Hull-Interior_Trim",
			"primitives":[
				{
					"attributes":{
						"POSITION":65,
						"NORMAL":66,
						"TEXCOORD_0":67,
						"TANGENT":68
					},
					"indices":69,
					"material":13
				}
			]
		},
		{
			"name":"Jets",
			"primitives":[
				{
					"attributes":{
						"POSITION":70,
						"NORMAL":71,
						"TEXCOORD_0":72,
						"TANGENT":73
					},
					"indices":74,
					"material":14
				}
			]
		},
		{
			"name":"Seats-Primary",
			"primitives":[
				{
					"attributes":{
						"POSITION":75,
						"NORMAL":76,
						"TEXCOORD_0":77,
						"TANGENT":78
					},
					"indices":79,
					"material":15
				}
			]
		},
		{
			"name":"Seats-Secondary",
			"primitives":[
				{
					"attributes":{
						"POSITION":80,
						"NORMAL":81,
						"TEXCOORD_0":82,
						"TANGENT":83
					},
					"indices":84,
					"material":16
				}
			]
		},
		{
			"name":"Seats-Tertiary",
			"primitives":[
				{
					"attributes":{
						"POSITION":85,
						"NORMAL":86,
						"TEXCOORD_0":87,
						"TEXCOORD_1":88,
						"TANGENT":89
					},
					"indices":90,
					"material":17
				}
			]
		},
		{
			"name":"Speakers",
			"primitives":[
				{
					"attributes":{
						"POSITION":91,
						"NORMAL":92,
						"TEXCOORD_0":93,
						"TANGENT":94
					},
					"indices":95,
					"material":18
				}
			]
		},
		{
			"name":"Speakers-Canopy",
			"primitives":[
				{
					"attributes":{
						"POSITION":96,
						"NORMAL":97,
						"TEXCOORD_0":98,
						"TANGENT":99
					},
					"indices":100,
					"material":18
				}
			]
		},
		{
			"name":"Table",
			"primitives":[
				{
					"attributes":{
						"POSITION":101,
						"NORMAL":102,
						"TEXCOORD_0":103,
						"TANGENT":104
					},
					"indices":105,
					"material":19
				}
			]
		},
		{
			"name":"Wheel-Primary",
			"primitives":[
				{
					"attributes":{
						"POSITION":106,
						"NORMAL":107,
						"TEXCOORD_0":108,
						"TANGENT":109
					},
					"indices":110,
					"material":15
				}
			]
		},
		{
			"name":"Wheel-Tertiary",
			"primitives":[
				{
					"attributes":{
						"POSITION":111,
						"NORMAL":112,
						"TEXCOORD_0":113,
						"TANGENT":114
					},
					"indices":115,
					"material":17
				}
			]
		},
		{
			"name":"windshield",
			"primitives":[
				{
					"attributes":{
						"POSITION":116,
						"NORMAL":117,
						"TEXCOORD_0":118,
						"TANGENT":119
					},
					"indices":120,
					"material":20
				}
			]
		},
		{
			"name":"windshieldGlass.002",
			"primitives":[
				{
					"attributes":{
						"POSITION":121,
						"NORMAL":122,
						"TEXCOORD_0":123,
						"TANGENT":124
					},
					"indices":125,
					"material":21
				}
			]
		},
		{
			"name":"hullDecals.002",
			"primitives":[
				{
					"attributes":{
						"POSITION":126,
						"NORMAL":127,
						"TEXCOORD_0":128,
						"TANGENT":129
					},
					"indices":130,
					"material":22
				}
			]
		},
		{
			"name":"safetyDecals.002",
			"primitives":[
				{
					"attributes":{
						"POSITION":131,
						"NORMAL":132,
						"TEXCOORD_0":133,
						"TANGENT":134
					},
					"indices":135,
					"material":23
				}
			]
		},
		{
			"name":"chromeFrame.002",
			"primitives":[
				{
					"attributes":{
						"POSITION":136,
						"NORMAL":137,
						"TEXCOORD_0":138,
						"TANGENT":139
					},
					"indices":140,
					"material":24
				}
			]
		}
	],
	"textures":[
		{
			"sampler":0,
			"source":0
		},
		{
			"sampler":0,
			"source":1
		},
		{
			"sampler":0,
			"source":2
		},
		{
			"sampler":0,
			"source":3
		},
		{
			"sampler":0,
			"source":4
		},
		{
			"sampler":0,
			"source":5
		},
		{
			"sampler":0,
			"source":6
		},
		{
			"sampler":0,
			"source":7
		},
		{
			"sampler":0,
			"source":8
		},
		{
			"sampler":0,
			"source":9
		},
		{
			"sampler":0,
			"source":10
		},
		{
			"sampler":0,
			"source":11
		},
		{
			"sampler":0,
			"source":12
		},
		{
			"sampler":0,
			"source":13
		},
		{
			"sampler":0,
			"source":14
		},
		{
			"sampler":0,
			"source":15
		},
		{
			"sampler":0,
			"source":14
		},
		{
			"sampler":0,
			"source":15
		},
		{
			"sampler":0,
			"source":16
		},
		{
			"sampler":0,
			"source":17
		},
		{
			"sampler":0,
			"source":16
		},
		{
			"sampler":0,
			"source":17
		},
		{
			"sampler":0,
			"source":16
		},
		{
			"sampler":0,
			"source":17
		},
		{
			"sampler":0,
			"source":16
		},
		{
			"sampler":0,
			"source":17
		},
		{
			"sampler":0,
			"source":18
		},
		{
			"sampler":0,
			"source":19
		},
		{
			"sampler":0,
			"source":20
		},
		{
			"sampler":0,
			"source":21
		},
		{
			"sampler":0,
			"source":20
		},
		{
			"sampler":0,
			"source":21
		},
		{
			"sampler":0,
			"source":20
		},
		{
			"sampler":0,
			"source":21
		},
		{
			"sampler":0,
			"source":22
		},
		{
			"sampler":0,
			"source":23
		},
		{
			"sampler":0,
			"source":24
		},
		{
			"sampler":0,
			"source":25
		},
		{
			"sampler":0,
			"source":26
		},
		{
			"sampler":0,
			"source":27
		},
		{
			"sampler":0,
			"source":28
		},
		{
			"sampler":0,
			"source":29
		},
		{
			"sampler":0,
			"source":30
		},
		{
			"sampler":0,
			"source":31
		},
		{
			"sampler":0,
			"source":32
		},
		{
			"sampler":0,
			"source":32
		},
		{
			"sampler":0,
			"source":33
		},
		{
			"sampler":0,
			"source":34
		}
	],
	"images":[
		{
			"mimeType":"image/png",
			"name":"BiminiCanopy_normal",
			"uri":"BiminiCanopy_normal.png"
		},
		{
			"mimeType":"image/png",
			"name":"BiminiCanopy_AO",
			"uri":"BiminiCanopy_AO.png"
		},
		{
			"mimeType":"image/png",
			"name":"BiminiFrame_Normal",
			"uri":"BiminiFrame_Normal.png"
		},
		{
			"mimeType":"image/png",
			"name":"BiminiFrame_AO",
			"uri":"BiminiFrame_AO.png"
		},
		{
			"mimeType":"image/png",
			"name":"ChromeParts_normals",
			"uri":"ChromeParts_normals.png"
		},
		{
			"mimeType":"image/png",
			"name":"ChromeParts_ao",
			"uri":"ChromeParts_ao.png"
		},
		{
			"mimeType":"image/png",
			"name":"Controls_Normal",
			"uri":"Controls_Normal.png"
		},
		{
			"mimeType":"image/png",
			"name":"Controls_AO-Controls_Roughness-Controls_Metallic",
			"uri":"Controls_AO-Controls_Roughness-Controls_Metallic.png"
		},
		{
			"mimeType":"image/png",
			"name":"Controls_Albedo",
			"uri":"Controls_Albedo.png"
		},
		{
			"mimeType":"image/png",
			"name":"Controls-Atlas_BaseColor",
			"uri":"Controls-Atlas_BaseColor.png"
		},
		{
			"mimeType":"image/png",
			"name":"Controls-Atlas_Roughness",
			"uri":"Controls-Atlas_Roughness.png"
		},
		{
			"mimeType":"image/png",
			"name":"FloorMats_Normal",
			"uri":"FloorMats_Normal.png"
		},
		{
			"mimeType":"image/png",
			"name":"FloorMats_AO-FloorMats_Roughness",
			"uri":"FloorMats_AO-FloorMats_Roughness.png"
		},
		{
			"mimeType":"image/png",
			"name":"FloorMats_Albedo",
			"uri":"FloorMats_Albedo.png"
		},
		{
			"mimeType":"image/png",
			"name":"BottomHull_normal_base",
			"uri":"BottomHull_normal_base.png"
		},
		{
			"mimeType":"image/png",
			"name":"BottomHull_ambient_occlusion",
			"uri":"BottomHull_ambient_occlusion.png"
		},
		{
			"mimeType":"image/png",
			"name":"Hull-Interior_normal_base",
			"uri":"Hull-Interior_normal_base.png"
		},
		{
			"mimeType":"image/png",
			"name":"Hull-Interior_ambient_occlusion",
			"uri":"Hull-Interior_ambient_occlusion.png"
		},
		{
			"mimeType":"image/png",
			"name":"Motor-Mat_Normal",
			"uri":"Motor-Mat_Normal.png"
		},
		{
			"mimeType":"image/png",
			"name":"Motor-Mat_ambient_occlusion-Motor-Mat_Roughness",
			"uri":"Motor-Mat_ambient_occlusion-Motor-Mat_Roughness.png"
		},
		{
			"mimeType":"image/png",
			"name":"WheelSeats_Normal",
			"uri":"WheelSeats_Normal.png"
		},
		{
			"mimeType":"image/png",
			"name":"WheelSeats_AO-WheelSeats_Roughness",
			"uri":"WheelSeats_AO-WheelSeats_Roughness.png"
		},
		{
			"mimeType":"image/png",
			"name":"Speaker-Mat_Normal",
			"uri":"Speaker-Mat_Normal.png"
		},
		{
			"mimeType":"image/png",
			"name":"Speaker-Mat_ambient_occlusion",
			"uri":"Speaker-Mat_ambient_occlusion.png"
		},
		{
			"mimeType":"image/png",
			"name":"Speaker-Mat_BaseColor",
			"uri":"Speaker-Mat_BaseColor.png"
		},
		{
			"mimeType":"image/png",
			"name":"Speaker-Mat_Metallic-Speaker-Mat_Roughness",
			"uri":"Speaker-Mat_Metallic-Speaker-Mat_Roughness.png"
		},
		{
			"mimeType":"image/png",
			"name":"Table-Mat_Normal",
			"uri":"Table-Mat_Normal.png"
		},
		{
			"mimeType":"image/png",
			"name":"Table-Mat_ambient_occlusion-Table-Mat_Roughness-Table-Mat_Metallic",
			"uri":"Table-Mat_ambient_occlusion-Table-Mat_Roughness-Table-Mat_Metallic.png"
		},
		{
			"mimeType":"image/png",
			"name":"Table-Mat_BaseColor",
			"uri":"Table-Mat_BaseColor.png"
		},
		{
			"mimeType":"image/png",
			"name":"Windshield_Normal",
			"uri":"Windshield_Normal.png"
		},
		{
			"mimeType":"image/png",
			"name":"Windshield_AO-Windshield_Roughness-Windshield_Metallic",
			"uri":"Windshield_AO-Windshield_Roughness-Windshield_Metallic.png"
		},
		{
			"mimeType":"image/png",
			"name":"Windshield_BaseColor",
			"uri":"Windshield_BaseColor.png"
		},
		{
			"mimeType":"image/png",
			"name":"Decals_update",
			"uri":"Decals_update.png"
		},
		{
			"mimeType":"image/png",
			"name":"ChromeFrame_normal",
			"uri":"ChromeFrame_normal.png"
		},
		{
			"mimeType":"image/png",
			"name":"ChromeFrame_ao",
			"uri":"ChromeFrame_ao.png"
		}
	],
	"accessors":[
		{
			"bufferView":0,
			"componentType":5126,
			"count":4668,
			"max":[
				0.12678347527980804,
				0.07807548344135284,
				-0.2696375548839569
			],
			"min":[
				-0.12675388157367706,
				-0.1726667433977127,
				-0.3114308714866638
			],
			"type":"VEC3"
		},
		{
			"bufferView":1,
			"componentType":5126,
			"count":4668,
			"type":"VEC3"
		},
		{
			"bufferView":2,
			"componentType":5126,
			"count":4668,
			"type":"VEC2"
		},
		{
			"bufferView":3,
			"componentType":5126,
			"count":4668,
			"type":"VEC4"
		},
		{
			"bufferView":4,
			"componentType":5123,
			"count":19692,
			"type":"SCALAR"
		},
		{
			"bufferView":5,
			"componentType":5126,
			"count":3575,
			"max":[
				1.4464056491851807,
				3.042202949523926,
				-0.7470252513885498
			],
			"min":[
				-1.4464058876037598,
				2.2587637901306152,
				-1.4250975847244263
			],
			"type":"VEC3"
		},
		{
			"bufferView":6,
			"componentType":5126,
			"count":3575,
			"type":"VEC3"
		},
		{
			"bufferView":7,
			"componentType":5126,
			"count":3575,
			"type":"VEC2"
		},
		{
			"bufferView":8,
			"componentType":5126,
			"count":3575,
			"type":"VEC4"
		},
		{
			"bufferView":9,
			"componentType":5123,
			"count":12420,
			"type":"SCALAR"
		},
		{
			"bufferView":10,
			"componentType":5126,
			"count":14,
			"max":[
				1.0045690536499023,
				0.561371922492981,
				0.028175830841064453
			],
			"min":[
				-0.24756570160388947,
				-0.040216248482465744,
				-3.2493910789489746
			],
			"type":"VEC3"
		},
		{
			"bufferView":11,
			"componentType":5126,
			"count":14,
			"type":"VEC3"
		},
		{
			"bufferView":12,
			"componentType":5126,
			"count":14,
			"type":"VEC2"
		},
		{
			"bufferView":13,
			"componentType":5126,
			"count":14,
			"type":"VEC4"
		},
		{
			"bufferView":14,
			"componentType":5123,
			"count":18,
			"type":"SCALAR"
		},
		{
			"bufferView":15,
			"componentType":5126,
			"count":45512,
			"max":[
				1.597976565361023,
				2.2318227291107178,
				3.9441030025482178
			],
			"min":[
				-1.5979794263839722,
				0.4730296730995178,
				-3.934176206588745
			],
			"type":"VEC3"
		},
		{
			"bufferView":16,
			"componentType":5126,
			"count":45512,
			"type":"VEC3"
		},
		{
			"bufferView":17,
			"componentType":5126,
			"count":45512,
			"type":"VEC2"
		},
		{
			"bufferView":18,
			"componentType":5126,
			"count":45512,
			"type":"VEC4"
		},
		{
			"bufferView":19,
			"componentType":5123,
			"count":205296,
			"type":"SCALAR"
		},
		{
			"bufferView":20,
			"componentType":5126,
			"count":7471,
			"max":[
				0.09846234321594238,
				0.5206575393676758,
				0.1908266246318817
			],
			"min":[
				-0.8457491993904114,
				-0.14803950488567352,
				-0.48445382714271545
			],
			"type":"VEC3"
		},
		{
			"bufferView":21,
			"componentType":5126,
			"count":7471,
			"type":"VEC3"
		},
		{
			"bufferView":22,
			"componentType":5126,
			"count":7471,
			"type":"VEC2"
		},
		{
			"bufferView":23,
			"componentType":5126,
			"count":7471,
			"type":"VEC4"
		},
		{
			"bufferView":24,
			"componentType":5123,
			"count":23265,
			"type":"SCALAR"
		},
		{
			"bufferView":25,
			"componentType":5126,
			"count":237,
			"max":[
				0.09287995100021362,
				0.5305059552192688,
				-0.10572701692581177
			],
			"min":[
				-0.7929443120956421,
				-0.01059887744486332,
				-0.498024046421051
			],
			"type":"VEC3"
		},
		{
			"bufferView":26,
			"componentType":5126,
			"count":237,
			"type":"VEC3"
		},
		{
			"bufferView":27,
			"componentType":5126,
			"count":237,
			"type":"VEC2"
		},
		{
			"bufferView":28,
			"componentType":5126,
			"count":237,
			"type":"VEC4"
		},
		{
			"bufferView":29,
			"componentType":5123,
			"count":672,
			"type":"SCALAR"
		},
		{
			"bufferView":30,
			"componentType":5126,
			"count":39,
			"max":[
				-0.33482521772384644,
				0.5316685438156128,
				-0.4523647725582123
			],
			"min":[
				-0.7532589435577393,
				0.4075620174407959,
				-0.494398295879364
			],
			"type":"VEC3"
		},
		{
			"bufferView":31,
			"componentType":5126,
			"count":39,
			"type":"VEC3"
		},
		{
			"bufferView":32,
			"componentType":5126,
			"count":39,
			"type":"VEC2"
		},
		{
			"bufferView":33,
			"componentType":5126,
			"count":39,
			"type":"VEC4"
		},
		{
			"bufferView":34,
			"componentType":5123,
			"count":108,
			"type":"SCALAR"
		},
		{
			"bufferView":35,
			"componentType":5126,
			"count":1770,
			"max":[
				3.8564822673797607,
				1.7934502363204956,
				1.2055405378341675
			],
			"min":[
				-3.8569047451019287,
				0.6405781507492065,
				-1.2053438425064087
			],
			"type":"VEC3"
		},
		{
			"bufferView":36,
			"componentType":5126,
			"count":1770,
			"type":"VEC3"
		},
		{
			"bufferView":37,
			"componentType":5126,
			"count":1770,
			"type":"VEC2"
		},
		{
			"bufferView":38,
			"componentType":5126,
			"count":1770,
			"type":"VEC4"
		},
		{
			"bufferView":39,
			"componentType":5123,
			"count":3492,
			"type":"SCALAR"
		},
		{
			"bufferView":40,
			"componentType":5126,
			"count":5965,
			"max":[
				1.469937801361084,
				0.8292737007141113,
				3.5349950790405273
			],
			"min":[
				-1.4699358940124512,
				-7.629394360719743e-08,
				-3.909576416015625
			],
			"type":"VEC3"
		},
		{
			"bufferView":41,
			"componentType":5126,
			"count":5965,
			"type":"VEC3"
		},
		{
			"bufferView":42,
			"componentType":5126,
			"count":5965,
			"type":"VEC2"
		},
		{
			"bufferView":43,
			"componentType":5126,
			"count":5965,
			"type":"VEC4"
		},
		{
			"bufferView":44,
			"componentType":5123,
			"count":25818,
			"type":"SCALAR"
		},
		{
			"bufferView":45,
			"componentType":5126,
			"count":3729,
			"max":[
				1.5710326433181763,
				1.3965083360671997,
				3.930419445037842
			],
			"min":[
				-1.571034550666809,
				0.49873945116996765,
				-3.9354381561279297
			],
			"type":"VEC3"
		},
		{
			"bufferView":46,
			"componentType":5126,
			"count":3729,
			"type":"VEC3"
		},
		{
			"bufferView":47,
			"componentType":5126,
			"count":3729,
			"type":"VEC2"
		},
		{
			"bufferView":48,
			"componentType":5126,
			"count":3729,
			"type":"VEC4"
		},
		{
			"bufferView":49,
			"componentType":5123,
			"count":13266,
			"type":"SCALAR"
		},
		{
			"bufferView":50,
			"componentType":5126,
			"count":38021,
			"max":[
				1.551753282546997,
				1.8073123693466187,
				3.890993356704712
			],
			"min":[
				-1.551750898361206,
				0.6249394416809082,
				-3.9306862354278564
			],
			"type":"VEC3"
		},
		{
			"bufferView":51,
			"componentType":5126,
			"count":38021,
			"type":"VEC3"
		},
		{
			"bufferView":52,
			"componentType":5126,
			"count":38021,
			"type":"VEC2"
		},
		{
			"bufferView":53,
			"componentType":5126,
			"count":38021,
			"type":"VEC4"
		},
		{
			"bufferView":54,
			"componentType":5123,
			"count":184476,
			"type":"SCALAR"
		},
		{
			"bufferView":55,
			"componentType":5126,
			"count":7736,
			"max":[
				1.5199952125549316,
				1.9459136724472046,
				1.0016999244689941
			],
			"min":[
				-1.5234348773956299,
				0.9938801527023315,
				-0.932288408279419
			],
			"type":"VEC3"
		},
		{
			"bufferView":56,
			"componentType":5126,
			"count":7736,
			"type":"VEC3"
		},
		{
			"bufferView":57,
			"componentType":5126,
			"count":7736,
			"type":"VEC2"
		},
		{
			"bufferView":58,
			"componentType":5126,
			"count":7736,
			"type":"VEC4"
		},
		{
			"bufferView":59,
			"componentType":5123,
			"count":36906,
			"type":"SCALAR"
		},
		{
			"bufferView":60,
			"componentType":5126,
			"count":1415,
			"max":[
				1.500161051750183,
				1.9356448650360107,
				0.7769395112991333
			],
			"min":[
				-1.2778507471084595,
				1.2079002857208252,
				-0.46733537316322327
			],
			"type":"VEC3"
		},
		{
			"bufferView":61,
			"componentType":5126,
			"count":1415,
			"type":"VEC3"
		},
		{
			"bufferView":62,
			"componentType":5126,
			"count":1415,
			"type":"VEC2"
		},
		{
			"bufferView":63,
			"componentType":5126,
			"count":1415,
			"type":"VEC4"
		},
		{
			"bufferView":64,
			"componentType":5123,
			"count":4965,
			"type":"SCALAR"
		},
		{
			"bufferView":65,
			"componentType":5126,
			"count":5952,
			"max":[
				1.5722776651382446,
				1.5775666236877441,
				3.9413912296295166
			],
			"min":[
				-1.5722802877426147,
				0.6002240777015686,
				-3.9413912296295166
			],
			"type":"VEC3"
		},
		{
			"bufferView":66,
			"componentType":5126,
			"count":5952,
			"type":"VEC3"
		},
		{
			"bufferView":67,
			"componentType":5126,
			"count":5952,
			"type":"VEC2"
		},
		{
			"bufferView":68,
			"componentType":5126,
			"count":5952,
			"type":"VEC4"
		},
		{
			"bufferView":69,
			"componentType":5123,
			"count":30252,
			"type":"SCALAR"
		},
		{
			"bufferView":70,
			"componentType":5126,
			"count":1786,
			"max":[
				0.12223631143569946,
				0.12547509372234344,
				0.0963892936706543
			],
			"min":[
				-0.6045260429382324,
				-0.12547530233860016,
				-0.09638892114162445
			],
			"type":"VEC3"
		},
		{
			"bufferView":71,
			"componentType":5126,
			"count":1786,
			"type":"VEC3"
		},
		{
			"bufferView":72,
			"componentType":5126,
			"count":1786,
			"type":"VEC2"
		},
		{
			"bufferView":73,
			"componentType":5126,
			"count":1786,
			"type":"VEC4"
		},
		{
			"bufferView":74,
			"componentType":5123,
			"count":5892,
			"type":"SCALAR"
		},
		{
			"bufferView":75,
			"componentType":5126,
			"count":16855,
			"max":[
				1.357588529586792,
				1.8027386665344238,
				3.334056854248047
			],
			"min":[
				-1.3327593803405762,
				0.9265121221542358,
				-2.9623403549194336
			],
			"type":"VEC3"
		},
		{
			"bufferView":76,
			"componentType":5126,
			"count":16855,
			"type":"VEC3"
		},
		{
			"bufferView":77,
			"componentType":5126,
			"count":16855,
			"type":"VEC2"
		},
		{
			"bufferView":78,
			"componentType":5126,
			"count":16855,
			"type":"VEC4"
		},
		{
			"bufferView":79,
			"componentType":5123,
			"count":84861,
			"type":"SCALAR"
		},
		{
			"bufferView":80,
			"componentType":5126,
			"count":29426,
			"max":[
				1.3795136213302612,
				1.8019940853118896,
				3.3638641834259033
			],
			"min":[
				-1.3824464082717896,
				0.7539413571357727,
				-3.1971023082733154
			],
			"type":"VEC3"
		},
		{
			"bufferView":81,
			"componentType":5126,
			"count":29426,
			"type":"VEC3"
		},
		{
			"bufferView":82,
			"componentType":5126,
			"count":29426,
			"type":"VEC2"
		},
		{
			"bufferView":83,
			"componentType":5126,
			"count":29426,
			"type":"VEC4"
		},
		{
			"bufferView":84,
			"componentType":5123,
			"count":146340,
			"type":"SCALAR"
		},
		{
			"bufferView":85,
			"componentType":5126,
			"count":4477,
			"max":[
				1.2898056507110596,
				1.4360451698303223,
				3.3179931640625
			],
			"min":[
				-1.3185679912567139,
				0.9208696484565735,
				-2.9664011001586914
			],
			"type":"VEC3"
		},
		{
			"bufferView":86,
			"componentType":5126,
			"count":4477,
			"type":"VEC3"
		},
		{
			"bufferView":87,
			"componentType":5126,
			"count":4477,
			"type":"VEC2"
		},
		{
			"bufferView":88,
			"componentType":5126,
			"count":4477,
			"type":"VEC2"
		},
		{
			"bufferView":89,
			"componentType":5126,
			"count":4477,
			"type":"VEC4"
		},
		{
			"bufferView":90,
			"componentType":5123,
			"count":21708,
			"type":"SCALAR"
		},
		{
			"bufferView":91,
			"componentType":5126,
			"count":7474,
			"max":[
				1.2827283143997192,
				1.4200125932693481,
				3.2380173206329346
			],
			"min":[
				-1.282725214958191,
				0.7160077691078186,
				-2.9071614742279053
			],
			"type":"VEC3"
		},
		{
			"bufferView":92,
			"componentType":5126,
			"count":7474,
			"type":"VEC3"
		},
		{
			"bufferView":93,
			"componentType":5126,
			"count":7474,
			"type":"VEC2"
		},
		{
			"bufferView":94,
			"componentType":5126,
			"count":7474,
			"type":"VEC4"
		},
		{
			"bufferView":95,
			"componentType":5123,
			"count":30474,
			"type":"SCALAR"
		},
		{
			"bufferView":96,
			"componentType":5126,
			"count":3436,
			"max":[
				3.156076669692993,
				0.1261199414730072,
				0.17198625206947327
			],
			"min":[
				-0.1351575404405594,
				-0.1308949887752533,
				-0.19719254970550537
			],
			"type":"VEC3"
		},
		{
			"bufferView":97,
			"componentType":5126,
			"count":3436,
			"type":"VEC3"
		},
		{
			"bufferView":98,
			"componentType":5126,
			"count":3436,
			"type":"VEC2"
		},
		{
			"bufferView":99,
			"componentType":5126,
			"count":3436,
			"type":"VEC4"
		},
		{
			"bufferView":100,
			"componentType":5123,
			"count":14412,
			"type":"SCALAR"
		},
		{
			"bufferView":101,
			"componentType":5126,
			"count":1799,
			"max":[
				0.37870609760284424,
				0.030943989753723145,
				0.4155485928058624
			],
			"min":[
				-0.3787057399749756,
				-0.4734233617782593,
				-0.4155485928058624
			],
			"type":"VEC3"
		},
		{
			"bufferView":102,
			"componentType":5126,
			"count":1799,
			"type":"VEC3"
		},
		{
			"bufferView":103,
			"componentType":5126,
			"count":1799,
			"type":"VEC2"
		},
		{
			"bufferView":104,
			"componentType":5126,
			"count":1799,
			"type":"VEC4"
		},
		{
			"bufferView":105,
			"componentType":5123,
			"count":5940,
			"type":"SCALAR"
		},
		{
			"bufferView":106,
			"componentType":5126,
			"count":2204,
			"max":[
				0.23103706538677216,
				0.12752602994441986,
				0.054149921983480453
			],
			"min":[
				-0.2312190979719162,
				-0.08589187264442444,
				-0.04164157435297966
			],
			"type":"VEC3"
		},
		{
			"bufferView":107,
			"componentType":5126,
			"count":2204,
			"type":"VEC3"
		},
		{
			"bufferView":108,
			"componentType":5126,
			"count":2204,
			"type":"VEC2"
		},
		{
			"bufferView":109,
			"componentType":5126,
			"count":2204,
			"type":"VEC4"
		},
		{
			"bufferView":110,
			"componentType":5123,
			"count":12084,
			"type":"SCALAR"
		},
		{
			"bufferView":111,
			"componentType":5126,
			"count":1558,
			"max":[
				0.21452075242996216,
				0.22270843386650085,
				0.08042305707931519
			],
			"min":[
				-0.21470296382904053,
				-0.22270843386650085,
				-0.08042316138744354
			],
			"type":"VEC3"
		},
		{
			"bufferView":112,
			"componentType":5126,
			"count":1558,
			"type":"VEC3"
		},
		{
			"bufferView":113,
			"componentType":5126,
			"count":1558,
			"type":"VEC2"
		},
		{
			"bufferView":114,
			"componentType":5126,
			"count":1558,
			"type":"VEC4"
		},
		{
			"bufferView":115,
			"componentType":5123,
			"count":7896,
			"type":"SCALAR"
		},
		{
			"bufferView":116,
			"componentType":5126,
			"count":11618,
			"max":[
				1.4271010160446167,
				2.2419822216033936,
				1.1256065368652344
			],
			"min":[
				-1.4271012544631958,
				1.7058253288269043,
				-1.4626524448394775
			],
			"type":"VEC3"
		},
		{
			"bufferView":117,
			"componentType":5126,
			"count":11618,
			"type":"VEC3"
		},
		{
			"bufferView":118,
			"componentType":5126,
			"count":11618,
			"type":"VEC2"
		},
		{
			"bufferView":119,
			"componentType":5126,
			"count":11618,
			"type":"VEC4"
		},
		{
			"bufferView":120,
			"componentType":5123,
			"count":37338,
			"type":"SCALAR"
		},
		{
			"bufferView":121,
			"componentType":5126,
			"count":706,
			"max":[
				0.1420801281929016,
				0.22164855897426605,
				0.13073085248470306
			],
			"min":[
				-0.1420801281929016,
				0.17841506004333496,
				-0.10911639779806137
			],
			"type":"VEC3"
		},
		{
			"bufferView":122,
			"componentType":5126,
			"count":706,
			"type":"VEC3"
		},
		{
			"bufferView":123,
			"componentType":5126,
			"count":706,
			"type":"VEC2"
		},
		{
			"bufferView":124,
			"componentType":5126,
			"count":706,
			"type":"VEC4"
		},
		{
			"bufferView":125,
			"componentType":5123,
			"count":1908,
			"type":"SCALAR"
		},
		{
			"bufferView":126,
			"componentType":5126,
			"count":372,
			"max":[
				1.5746527910232544,
				1.5531827211380005,
				2.0911426544189453
			],
			"min":[
				-1.5746523141860962,
				0.49855050444602966,
				-3.1432809829711914
			],
			"type":"VEC3"
		},
		{
			"bufferView":127,
			"componentType":5126,
			"count":372,
			"type":"VEC3"
		},
		{
			"bufferView":128,
			"componentType":5126,
			"count":372,
			"type":"VEC2"
		},
		{
			"bufferView":129,
			"componentType":5126,
			"count":372,
			"type":"VEC4"
		},
		{
			"bufferView":130,
			"componentType":5123,
			"count":1572,
			"type":"SCALAR"
		},
		{
			"bufferView":131,
			"componentType":5126,
			"count":56,
			"max":[
				1.378770351409912,
				1.7133694887161255,
				2.5685982704162598
			],
			"min":[
				-1.3787708282470703,
				0.679236650466919,
				-3.1840052604675293
			],
			"type":"VEC3"
		},
		{
			"bufferView":132,
			"componentType":5126,
			"count":56,
			"type":"VEC3"
		},
		{
			"bufferView":133,
			"componentType":5126,
			"count":56,
			"type":"VEC2"
		},
		{
			"bufferView":134,
			"componentType":5126,
			"count":56,
			"type":"VEC4"
		},
		{
			"bufferView":135,
			"componentType":5123,
			"count":84,
			"type":"SCALAR"
		},
		{
			"bufferView":136,
			"componentType":5126,
			"count":7956,
			"max":[
				1.5792474746704102,
				3.212787389755249,
				3.945540428161621
			],
			"min":[
				-1.5792465209960938,
				0.5707024931907654,
				-3.9455394744873047
			],
			"type":"VEC3"
		},
		{
			"bufferView":137,
			"componentType":5126,
			"count":7956,
			"type":"VEC3"
		},
		{
			"bufferView":138,
			"componentType":5126,
			"count":7956,
			"type":"VEC2"
		},
		{
			"bufferView":139,
			"componentType":5126,
			"count":7956,
			"type":"VEC4"
		},
		{
			"bufferView":140,
			"componentType":5123,
			"count":33834,
			"type":"SCALAR"
		}
	],
	"bufferViews":[
		{
			"buffer":0,
			"byteLength":56016,
			"byteOffset":0,
			"target":34962
		},
		{
			"buffer":0,
			"byteLength":56016,
			"byteOffset":56016,
			"target":34962
		},
		{
			"buffer":0,
			"byteLength":37344,
			"byteOffset":112032,
			"target":34962
		},
		{
			"buffer":0,
			"byteLength":74688,
			"byteOffset":149376,
			"target":34962
		},
		{
			"buffer":0,
			"byteLength":39384,
			"byteOffset":224064,
			"target":34963
		},
		{
			"buffer":0,
			"byteLength":42900,
			"byteOffset":263448,
			"target":34962
		},
		{
			"buffer":0,
			"byteLength":42900,
			"byteOffset":306348,
			"target":34962
		},
		{
			"buffer":0,
			"byteLength":28600,
			"byteOffset":349248,
			"target":34962
		},
		{
			"buffer":0,
			"byteLength":57200,
			"byteOffset":377848,
			"target":34962
		},
		{
			"buffer":0,
			"byteLength":24840,
			"byteOffset":435048,
			"target":34963
		},
		{
			"buffer":0,
			"byteLength":168,
			"byteOffset":459888,
			"target":34962
		},
		{
			"buffer":0,
			"byteLength":168,
			"byteOffset":460056,
			"target":34962
		},
		{
			"buffer":0,
			"byteLength":112,
			"byteOffset":460224,
			"target":34962
		},
		{
			"buffer":0,
			"byteLength":224,
			"byteOffset":460336,
			"target":34962
		},
		{
			"buffer":0,
			"byteLength":36,
			"byteOffset":460560,
			"target":34963
		},
		{
			"buffer":0,
			"byteLength":546144,
			"byteOffset":460596,
			"target":34962
		},
		{
			"buffer":0,
			"byteLength":546144,
			"byteOffset":1006740,
			"target":34962
		},
		{
			"buffer":0,
			"byteLength":364096,
			"byteOffset":1552884,
			"target":34962
		},
		{
			"buffer":0,
			"byteLength":728192,
			"byteOffset":1916980,
			"target":34962
		},
		{
			"buffer":0,
			"byteLength":410592,
			"byteOffset":2645172,
			"target":34963
		},
		{
			"buffer":0,
			"byteLength":89652,
			"byteOffset":3055764,
			"target":34962
		},
		{
			"buffer":0,
			"byteLength":89652,
			"byteOffset":3145416,
			"target":34962
		},
		{
			"buffer":0,
			"byteLength":59768,
			"byteOffset":3235068,
			"target":34962
		},
		{
			"buffer":0,
			"byteLength":119536,
			"byteOffset":3294836,
			"target":34962
		},
		{
			"buffer":0,
			"byteLength":46530,
			"byteOffset":3414372,
			"target":34963
		},
		{
			"buffer":0,
			"byteLength":2844,
			"byteOffset":3460904,
			"target":34962
		},
		{
			"buffer":0,
			"byteLength":2844,
			"byteOffset":3463748,
			"target":34962
		},
		{
			"buffer":0,
			"byteLength":1896,
			"byteOffset":3466592,
			"target":34962
		},
		{
			"buffer":0,
			"byteLength":3792,
			"byteOffset":3468488,
			"target":34962
		},
		{
			"buffer":0,
			"byteLength":1344,
			"byteOffset":3472280,
			"target":34963
		},
		{
			"buffer":0,
			"byteLength":468,
			"byteOffset":3473624,
			"target":34962
		},
		{
			"buffer":0,
			"byteLength":468,
			"byteOffset":3474092,
			"target":34962
		},
		{
			"buffer":0,
			"byteLength":312,
			"byteOffset":3474560,
			"target":34962
		},
		{
			"buffer":0,
			"byteLength":624,
			"byteOffset":3474872,
			"target":34962
		},
		{
			"buffer":0,
			"byteLength":216,
			"byteOffset":3475496,
			"target":34963
		},
		{
			"buffer":0,
			"byteLength":21240,
			"byteOffset":3475712,
			"target":34962
		},
		{
			"buffer":0,
			"byteLength":21240,
			"byteOffset":3496952,
			"target":34962
		},
		{
			"buffer":0,
			"byteLength":14160,
			"byteOffset":3518192,
			"target":34962
		},
		{
			"buffer":0,
			"byteLength":28320,
			"byteOffset":3532352,
			"target":34962
		},
		{
			"buffer":0,
			"byteLength":6984,
			"byteOffset":3560672,
			"target":34963
		},
		{
			"buffer":0,
			"byteLength":71580,
			"byteOffset":3567656,
			"target":34962
		},
		{
			"buffer":0,
			"byteLength":71580,
			"byteOffset":3639236,
			"target":34962
		},
		{
			"buffer":0,
			"byteLength":47720,
			"byteOffset":3710816,
			"target":34962
		},
		{
			"buffer":0,
			"byteLength":95440,
			"byteOffset":3758536,
			"target":34962
		},
		{
			"buffer":0,
			"byteLength":51636,
			"byteOffset":3853976,
			"target":34963
		},
		{
			"buffer":0,
			"byteLength":44748,
			"byteOffset":3905612,
			"target":34962
		},
		{
			"buffer":0,
			"byteLength":44748,
			"byteOffset":3950360,
			"target":34962
		},
		{
			"buffer":0,
			"byteLength":29832,
			"byteOffset":3995108,
			"target":34962
		},
		{
			"buffer":0,
			"byteLength":59664,
			"byteOffset":4024940,
			"target":34962
		},
		{
			"buffer":0,
			"byteLength":26532,
			"byteOffset":4084604,
			"target":34963
		},
		{
			"buffer":0,
			"byteLength":456252,
			"byteOffset":4111136,
			"target":34962
		},
		{
			"buffer":0,
			"byteLength":456252,
			"byteOffset":4567388,
			"target":34962
		},
		{
			"buffer":0,
			"byteLength":304168,
			"byteOffset":5023640,
			"target":34962
		},
		{
			"buffer":0,
			"byteLength":608336,
			"byteOffset":5327808,
			"target":34962
		},
		{
			"buffer":0,
			"byteLength":368952,
			"byteOffset":5936144,
			"target":34963
		},
		{
			"buffer":0,
			"byteLength":92832,
			"byteOffset":6305096,
			"target":34962
		},
		{
			"buffer":0,
			"byteLength":92832,
			"byteOffset":6397928,
			"target":34962
		},
		{
			"buffer":0,
			"byteLength":61888,
			"byteOffset":6490760,
			"target":34962
		},
		{
			"buffer":0,
			"byteLength":123776,
			"byteOffset":6552648,
			"target":34962
		},
		{
			"buffer":0,
			"byteLength":73812,
			"byteOffset":6676424,
			"target":34963
		},
		{
			"buffer":0,
			"byteLength":16980,
			"byteOffset":6750236,
			"target":34962
		},
		{
			"buffer":0,
			"byteLength":16980,
			"byteOffset":6767216,
			"target":34962
		},
		{
			"buffer":0,
			"byteLength":11320,
			"byteOffset":6784196,
			"target":34962
		},
		{
			"buffer":0,
			"byteLength":22640,
			"byteOffset":6795516,
			"target":34962
		},
		{
			"buffer":0,
			"byteLength":9930,
			"byteOffset":6818156,
			"target":34963
		},
		{
			"buffer":0,
			"byteLength":71424,
			"byteOffset":6828088,
			"target":34962
		},
		{
			"buffer":0,
			"byteLength":71424,
			"byteOffset":6899512,
			"target":34962
		},
		{
			"buffer":0,
			"byteLength":47616,
			"byteOffset":6970936,
			"target":34962
		},
		{
			"buffer":0,
			"byteLength":95232,
			"byteOffset":7018552,
			"target":34962
		},
		{
			"buffer":0,
			"byteLength":60504,
			"byteOffset":7113784,
			"target":34963
		},
		{
			"buffer":0,
			"byteLength":21432,
			"byteOffset":7174288,
			"target":34962
		},
		{
			"buffer":0,
			"byteLength":21432,
			"byteOffset":7195720,
			"target":34962
		},
		{
			"buffer":0,
			"byteLength":14288,
			"byteOffset":7217152,
			"target":34962
		},
		{
			"buffer":0,
			"byteLength":28576,
			"byteOffset":7231440,
			"target":34962
		},
		{
			"buffer":0,
			"byteLength":11784,
			"byteOffset":7260016,
			"target":34963
		},
		{
			"buffer":0,
			"byteLength":202260,
			"byteOffset":7271800,
			"target":34962
		},
		{
			"buffer":0,
			"byteLength":202260,
			"byteOffset":7474060,
			"target":34962
		},
		{
			"buffer":0,
			"byteLength":134840,
			"byteOffset":7676320,
			"target":34962
		},
		{
			"buffer":0,
			"byteLength":269680,
			"byteOffset":7811160,
			"target":34962
		},
		{
			"buffer":0,
			"byteLength":169722,
			"byteOffset":8080840,
			"target":34963
		},
		{
			"buffer":0,
			"byteLength":353112,
			"byteOffset":8250564,
			"target":34962
		},
		{
			"buffer":0,
			"byteLength":353112,
			"byteOffset":8603676,
			"target":34962
		},
		{
			"buffer":0,
			"byteLength":235408,
			"byteOffset":8956788,
			"target":34962
		},
		{
			"buffer":0,
			"byteLength":470816,
			"byteOffset":9192196,
			"target":34962
		},
		{
			"buffer":0,
			"byteLength":292680,
			"byteOffset":9663012,
			"target":34963
		},
		{
			"buffer":0,
			"byteLength":53724,
			"byteOffset":9955692,
			"target":34962
		},
		{
			"buffer":0,
			"byteLength":53724,
			"byteOffset":10009416,
			"target":34962
		},
		{
			"buffer":0,
			"byteLength":35816,
			"byteOffset":10063140,
			"target":34962
		},
		{
			"buffer":0,
			"byteLength":35816,
			"byteOffset":10098956,
			"target":34962
		},
		{
			"buffer":0,
			"byteLength":71632,
			"byteOffset":10134772,
			"target":34962
		},
		{
			"buffer":0,
			"byteLength":43416,
			"byteOffset":10206404,
			"target":34963
		},
		{
			"buffer":0,
			"byteLength":89688,
			"byteOffset":10249820,
			"target":34962
		},
		{
			"buffer":0,
			"byteLength":89688,
			"byteOffset":10339508,
			"target":34962
		},
		{
			"buffer":0,
			"byteLength":59792,
			"byteOffset":10429196,
			"target":34962
		},
		{
			"buffer":0,
			"byteLength":119584,
			"byteOffset":10488988,
			"target":34962
		},
		{
			"buffer":0,
			"byteLength":60948,
			"byteOffset":10608572,
			"target":34963
		},
		{
			"buffer":0,
			"byteLength":41232,
			"byteOffset":10669520,
			"target":34962
		},
		{
			"buffer":0,
			"byteLength":41232,
			"byteOffset":10710752,
			"target":34962
		},
		{
			"buffer":0,
			"byteLength":27488,
			"byteOffset":10751984,
			"target":34962
		},
		{
			"buffer":0,
			"byteLength":54976,
			"byteOffset":10779472,
			"target":34962
		},
		{
			"buffer":0,
			"byteLength":28824,
			"byteOffset":10834448,
			"target":34963
		},
		{
			"buffer":0,
			"byteLength":21588,
			"byteOffset":10863272,
			"target":34962
		},
		{
			"buffer":0,
			"byteLength":21588,
			"byteOffset":10884860,
			"target":34962
		},
		{
			"buffer":0,
			"byteLength":14392,
			"byteOffset":10906448,
			"target":34962
		},
		{
			"buffer":0,
			"byteLength":28784,
			"byteOffset":10920840,
			"target":34962
		},
		{
			"buffer":0,
			"byteLength":11880,
			"byteOffset":10949624,
			"target":34963
		},
		{
			"buffer":0,
			"byteLength":26448,
			"byteOffset":10961504,
			"target":34962
		},
		{
			"buffer":0,
			"byteLength":26448,
			"byteOffset":10987952,
			"target":34962
		},
		{
			"buffer":0,
			"byteLength":17632,
			"byteOffset":11014400,
			"target":34962
		},
		{
			"buffer":0,
			"byteLength":35264,
			"byteOffset":11032032,
			"target":34962
		},
		{
			"buffer":0,
			"byteLength":24168,
			"byteOffset":11067296,
			"target":34963
		},
		{
			"buffer":0,
			"byteLength":18696,
			"byteOffset":11091464,
			"target":34962
		},
		{
			"buffer":0,
			"byteLength":18696,
			"byteOffset":11110160,
			"target":34962
		},
		{
			"buffer":0,
			"byteLength":12464,
			"byteOffset":11128856,
			"target":34962
		},
		{
			"buffer":0,
			"byteLength":24928,
			"byteOffset":11141320,
			"target":34962
		},
		{
			"buffer":0,
			"byteLength":15792,
			"byteOffset":11166248,
			"target":34963
		},
		{
			"buffer":0,
			"byteLength":139416,
			"byteOffset":11182040,
			"target":34962
		},
		{
			"buffer":0,
			"byteLength":139416,
			"byteOffset":11321456,
			"target":34962
		},
		{
			"buffer":0,
			"byteLength":92944,
			"byteOffset":11460872,
			"target":34962
		},
		{
			"buffer":0,
			"byteLength":185888,
			"byteOffset":11553816,
			"target":34962
		},
		{
			"buffer":0,
			"byteLength":74676,
			"byteOffset":11739704,
			"target":34963
		},
		{
			"buffer":0,
			"byteLength":8472,
			"byteOffset":11814380,
			"target":34962
		},
		{
			"buffer":0,
			"byteLength":8472,
			"byteOffset":11822852,
			"target":34962
		},
		{
			"buffer":0,
			"byteLength":5648,
			"byteOffset":11831324,
			"target":34962
		},
		{
			"buffer":0,
			"byteLength":11296,
			"byteOffset":11836972,
			"target":34962
		},
		{
			"buffer":0,
			"byteLength":3816,
			"byteOffset":11848268,
			"target":34963
		},
		{
			"buffer":0,
			"byteLength":4464,
			"byteOffset":11852084,
			"target":34962
		},
		{
			"buffer":0,
			"byteLength":4464,
			"byteOffset":11856548,
			"target":34962
		},
		{
			"buffer":0,
			"byteLength":2976,
			"byteOffset":11861012,
			"target":34962
		},
		{
			"buffer":0,
			"byteLength":5952,
			"byteOffset":11863988,
			"target":34962
		},
		{
			"buffer":0,
			"byteLength":3144,
			"byteOffset":11869940,
			"target":34963
		},
		{
			"buffer":0,
			"byteLength":672,
			"byteOffset":11873084,
			"target":34962
		},
		{
			"buffer":0,
			"byteLength":672,
			"byteOffset":11873756,
			"target":34962
		},
		{
			"buffer":0,
			"byteLength":448,
			"byteOffset":11874428,
			"target":34962
		},
		{
			"buffer":0,
			"byteLength":896,
			"byteOffset":11874876,
			"target":34962
		},
		{
			"buffer":0,
			"byteLength":168,
			"byteOffset":11875772,
			"target":34963
		},
		{
			"buffer":0,
			"byteLength":95472,
			"byteOffset":11875940,
			"target":34962
		},
		{
			"buffer":0,
			"byteLength":95472,
			"byteOffset":11971412,
			"target":34962
		},
		{
			"buffer":0,
			"byteLength":63648,
			"byteOffset":12066884,
			"target":34962
		},
		{
			"buffer":0,
			"byteLength":127296,
			"byteOffset":12130532,
			"target":34962
		},
		{
			"buffer":0,
			"byteLength":67668,
			"byteOffset":12257828,
			"target":34963
		}
	],
	"samplers":[
		{
			"magFilter":9729,
			"minFilter":9987
		}
	],
	"buffers":[
		{
			"byteLength":12325496,
			"uri":"arrowBoat.bin"
		}
	]
}
